<svg xmlns="http://www.w3.org/2000/svg" width="90" height="65.15" viewBox="0 0 90 65.15">
  <g id="XMLID_69_" transform="translate(0.018 0)">
    <path id="XMLID_115_" d="M84.979,73.15H4.99A4.99,4.99,0,0,1,0,68.16V12.99A4.99,4.99,0,0,1,4.99,8H84.979a4.99,4.99,0,0,1,4.99,4.99V68.16a4.99,4.99,0,0,1-4.99,4.99" transform="translate(0 -8)" fill="#f0c41b"/>
    <rect id="XMLID_114_" width="90" height="13" transform="translate(-0.018 6.915)" fill="#806f5e"/>
    <path id="XMLID_113_" d="M20.512,29.1H6.551a1.551,1.551,0,0,1,0-3.1H20.512a1.551,1.551,0,0,1,0,3.1" transform="translate(2.756 1.922)" fill="#f9eab0"/>
    <path id="XMLID_112_" d="M33.512,29.1H19.551a1.551,1.551,0,0,1,0-3.1H33.512a1.551,1.551,0,0,1,0,3.1" transform="translate(9.922 1.922)" fill="#f9eab0"/>
    <path id="XMLID_111_" d="M8.1,34.1H6.551a1.551,1.551,0,0,1,0-3.1H8.1a1.551,1.551,0,0,1,0,3.1" transform="translate(2.756 4.678)" fill="#f9eab0"/>
    <path id="XMLID_110_" d="M14.654,34.1h-3.1a1.551,1.551,0,0,1,0-3.1h3.1a1.551,1.551,0,0,1,0,3.1" transform="translate(5.512 4.678)" fill="#f9eab0"/>
    <path id="XMLID_109_" d="M19.1,34.1H17.551a1.551,1.551,0,0,1,0-3.1H19.1a1.551,1.551,0,0,1,0,3.1" transform="translate(8.819 4.678)" fill="#f9eab0"/>
    <path id="XMLID_108_" d="M25.654,34.1h-3.1a1.551,1.551,0,0,1,0-3.1h3.1a1.551,1.551,0,0,1,0,3.1" transform="translate(11.575 4.678)" fill="#f9eab0"/>
    <path id="XMLID_107_" d="M28.551,34.1a1.631,1.631,0,0,1-1.1-.45,1.6,1.6,0,0,1-.45-1.1A1.558,1.558,0,1,1,28.551,34.1" transform="translate(14.882 4.685)" fill="#f9eab0"/>
    <path id="XMLID_106_" d="M52.614,42.307A9.307,9.307,0,1,1,43.307,33a9.307,9.307,0,0,1,9.307,9.307" transform="translate(18.741 5.78)" fill="#db2215"/>
    <path id="XMLID_105_" d="M59.614,42.307A9.307,9.307,0,1,1,50.307,33a9.307,9.307,0,0,1,9.307,9.307" transform="translate(22.599 5.78)" fill="#245ea9"/>
  </g>
</svg>
